<svg xmlns="http://www.w3.org/2000/svg" xmlns:xlink="http://www.w3.org/1999/xlink" width="836.817" height="439.099" viewBox="0 0 836.817 439.099">
  <defs>
    <linearGradient id="linear-gradient" x1="0.5" y1="1" x2="0.5" gradientUnits="objectBoundingBox">
      <stop offset="0" stop-color="gray" stop-opacity="0.251"/>
      <stop offset="0.54" stop-color="gray" stop-opacity="0.122"/>
      <stop offset="1" stop-color="gray" stop-opacity="0.102"/>
    </linearGradient>
    <linearGradient id="linear-gradient-2" x1="0.5" y1="1" x2="0.5" y2="-0.001" xlink:href="#linear-gradient"/>
  </defs>
  <g id="Group_597" data-name="Group 597" transform="translate(0 0.359)">
    <g id="Group_589" data-name="Group 589" transform="translate(324.609 30.182)" opacity="0.1">
      <ellipse id="Ellipse_39" data-name="Ellipse 39" cx="8.689" cy="11.376" rx="8.689" ry="11.376" transform="translate(32.748 234.842)" fill="#3f3d56"/>
      <path id="Path_654" data-name="Path 654" d="M535.6,455.322a13.744,13.744,0,0,0,1.817-6.956c0-6.284-3.894-11.376-8.7-11.376S520,442.1,520,448.382a13.744,13.744,0,0,0,1.817,6.956,14.209,14.209,0,0,0,0,13.9,14.209,14.209,0,0,0,0,13.9A13.7,13.7,0,0,0,520,490.1c0,6.276,3.894,11.376,8.689,11.376s8.7-5.1,8.7-11.376a13.7,13.7,0,0,0-1.817-6.956,14.209,14.209,0,0,0,0-13.9,14.209,14.209,0,0,0,0-13.9Z" transform="translate(-487.282 -257.778)" fill="#3f3d56"/>
      <ellipse id="Ellipse_40" data-name="Ellipse 40" cx="8.689" cy="11.376" rx="8.689" ry="11.376" transform="translate(32.748 165.324)" fill="#3f3d56"/>
      <ellipse id="Ellipse_41" data-name="Ellipse 41" cx="8.689" cy="11.376" rx="8.689" ry="11.376" transform="translate(32.748 151.42)" fill="#3f3d56"/>
      <path id="Path_655" data-name="Path 655" d="M486.06,269.91a40.528,40.528,0,0,1-3.237-4.764l22.829-3.749-24.692.183A41.7,41.7,0,0,1,480.2,228.6l33.129,17.187L482.785,223.32A41.635,41.635,0,1,1,551.5,269.9a41.642,41.642,0,0,1,4.749,7.589L526.6,292.923l31.6-10.605a41.635,41.635,0,0,1-6.711,39.092,41.627,41.627,0,1,1-65.434,0,41.627,41.627,0,0,1,0-51.476Z" transform="translate(-477.149 -202.271)" fill="#6c63ff"/>
      <path id="Path_656" data-name="Path 656" d="M560.4,324.38a41.436,41.436,0,0,1-8.91,25.738,41.627,41.627,0,1,1-65.434,0C480.479,343.033,560.4,319.707,560.4,324.38Z" transform="translate(-477.149 -231.002)" opacity="0.1"/>
    </g>
    <g id="Group_590" data-name="Group 590" transform="translate(436.519 68.23)" opacity="0.1">
      <ellipse id="Ellipse_42" data-name="Ellipse 42" cx="6.498" cy="8.498" rx="6.498" ry="8.498" transform="translate(24.471 175.347)" fill="#3f3d56"/>
      <path id="Path_657" data-name="Path 657" d="M667.4,441.018a10.254,10.254,0,0,0,1.351-5.192c0-4.7-2.909-8.506-6.49-8.506s-6.5,3.818-6.5,8.506a10.179,10.179,0,0,0,1.359,5.192,10.613,10.613,0,0,0,0,10.391,10.613,10.613,0,0,0,0,10.392,10.178,10.178,0,0,0-1.359,5.192c0,4.7,2.909,8.506,6.5,8.506s6.49-3.818,6.49-8.506A10.254,10.254,0,0,0,667.4,461.8a10.689,10.689,0,0,0,0-10.391,10.689,10.689,0,0,0,0-10.391Z" transform="translate(-631.297 -293.539)" fill="#3f3d56"/>
      <ellipse id="Ellipse_43" data-name="Ellipse 43" cx="6.498" cy="8.498" rx="6.498" ry="8.498" transform="translate(24.471 123.398)" fill="#3f3d56"/>
      <ellipse id="Ellipse_44" data-name="Ellipse 44" cx="6.498" cy="8.498" rx="6.498" ry="8.498" transform="translate(24.471 113.006)" fill="#3f3d56"/>
      <path id="Path_658" data-name="Path 658" d="M630.378,302.5a29.777,29.777,0,0,1-2.42-3.558l17.065-2.8-18.454.137a31.182,31.182,0,0,1-.6-24.654l24.761,12.85-22.837-16.8a31.113,31.113,0,1,1,51.377,34.816,31.461,31.461,0,0,1,3.55,5.673l-22.142,11.506,23.616-7.925a31.121,31.121,0,0,1-5.016,29.212,31.106,31.106,0,1,1-48.865,0,31.106,31.106,0,0,1,0-38.466Z" transform="translate(-623.72 -252.103)" fill="#6c63ff"/>
      <path id="Path_659" data-name="Path 659" d="M685.936,343.158a30.975,30.975,0,0,1-6.658,19.233,31.106,31.106,0,1,1-48.865,0C626.229,357.1,685.936,339.669,685.936,343.158Z" transform="translate(-623.725 -273.528)" opacity="0.1"/>
    </g>
    <g id="Group_591" data-name="Group 591" transform="translate(750.952 -0.359)" opacity="0.1">
      <ellipse id="Ellipse_45" data-name="Ellipse 45" cx="8.689" cy="11.376" rx="8.689" ry="11.376" transform="translate(33.334 234.842)" fill="#3f3d56"/>
      <path id="Path_660" data-name="Path 660" d="M1081.007,415.322a13.743,13.743,0,0,1-1.817-6.956c0-6.284,3.894-11.376,8.7-11.376s8.689,5.093,8.689,11.376a13.743,13.743,0,0,1-1.817,6.956,14.209,14.209,0,0,1,0,13.9,14.209,14.209,0,0,1,0,13.9,13.7,13.7,0,0,1,1.817,6.956c0,6.276-3.894,11.376-8.689,11.376s-8.7-5.1-8.7-11.376a13.7,13.7,0,0,1,1.817-6.956,14.209,14.209,0,0,1,0-13.9A14.209,14.209,0,0,1,1081.007,415.322Z" transform="translate(-1045.863 -217.778)" fill="#3f3d56"/>
      <ellipse id="Ellipse_46" data-name="Ellipse 46" cx="8.689" cy="11.376" rx="8.689" ry="11.376" transform="translate(33.334 165.324)" fill="#3f3d56"/>
      <ellipse id="Ellipse_47" data-name="Ellipse 47" cx="8.689" cy="11.376" rx="8.689" ry="11.376" transform="translate(33.334 151.42)" fill="#3f3d56"/>
      <path id="Path_661" data-name="Path 661" d="M1110.09,229.91a40.519,40.519,0,0,0,3.237-4.764L1090.5,221.4l24.692.183a41.7,41.7,0,0,0,.764-32.984l-33.129,17.187,30.541-22.463a41.635,41.635,0,1,0-68.717,46.575,41.651,41.651,0,0,0-4.749,7.589l29.647,15.438-31.6-10.605a41.634,41.634,0,0,0,6.711,39.092,41.627,41.627,0,1,0,65.434,0,41.627,41.627,0,0,0,0-51.476Z" transform="translate(-1035.541 -162.271)" fill="#6c63ff"/>
      <path id="Path_662" data-name="Path 662" d="M1035.81,284.38a41.437,41.437,0,0,0,8.91,25.738,41.627,41.627,0,1,0,65.434,0C1115.735,303.033,1035.81,279.707,1035.81,284.38Z" transform="translate(-1035.604 -191.003)" opacity="0.1"/>
    </g>
    <g id="Group_592" data-name="Group 592" transform="translate(677.819 63.648)" opacity="0.1">
      <ellipse id="Ellipse_48" data-name="Ellipse 48" cx="6.498" cy="8.498" rx="6.498" ry="8.498" transform="translate(24.779 175.347)" fill="#3f3d56"/>
      <path id="Path_663" data-name="Path 663" d="M973.581,435.018a10.255,10.255,0,0,1-1.351-5.192c0-4.7,2.909-8.506,6.49-8.506s6.5,3.818,6.5,8.506a10.177,10.177,0,0,1-1.359,5.192,10.613,10.613,0,0,1,0,10.391,10.613,10.613,0,0,1,0,10.391,10.177,10.177,0,0,1,1.359,5.192c0,4.7-2.909,8.506-6.5,8.506s-6.49-3.818-6.49-8.506a10.254,10.254,0,0,1,1.352-5.192,10.689,10.689,0,0,1,0-10.391,10.689,10.689,0,0,1,0-10.391Z" transform="translate(-947.436 -287.539)" fill="#3f3d56"/>
      <ellipse id="Ellipse_49" data-name="Ellipse 49" cx="6.498" cy="8.498" rx="6.498" ry="8.498" transform="translate(24.779 123.398)" fill="#3f3d56"/>
      <ellipse id="Ellipse_50" data-name="Ellipse 50" cx="6.498" cy="8.498" rx="6.498" ry="8.498" transform="translate(24.779 113.006)" fill="#3f3d56"/>
      <path id="Path_664" data-name="Path 664" d="M995.343,296.5a29.77,29.77,0,0,0,2.42-3.558l-17.065-2.8,18.454.137a31.182,31.182,0,0,0,.6-24.654l-24.761,12.85,22.837-16.8a31.113,31.113,0,1,0-51.377,34.816,31.458,31.458,0,0,0-3.55,5.673l22.142,11.506-23.57-7.918a31.121,31.121,0,0,0,5.016,29.212,31.106,31.106,0,1,0,48.865,0,31.106,31.106,0,0,0,0-38.466Z" transform="translate(-939.756 -246.103)" fill="#6c63ff"/>
      <path id="Path_665" data-name="Path 665" d="M939.8,337.158a30.977,30.977,0,0,0,6.658,19.233,31.106,31.106,0,1,0,48.865,0C999.5,351.1,939.8,333.669,939.8,337.158Z" transform="translate(-939.762 -267.528)" opacity="0.1"/>
    </g>
    <g id="Group_593" data-name="Group 593" transform="translate(5.581 -0.231)" opacity="0.1">
      <ellipse id="Ellipse_51" data-name="Ellipse 51" cx="8.689" cy="11.376" rx="8.689" ry="11.376" transform="translate(32.756 234.714)" fill="#3f3d56"/>
      <path id="Path_666" data-name="Path 666" d="M117.77,415.322a13.743,13.743,0,0,0,1.817-6.956c0-6.284-3.894-11.376-8.689-11.376s-8.689,5.093-8.689,11.376a13.743,13.743,0,0,0,1.81,6.956,14.255,14.255,0,0,0,0,13.9,14.255,14.255,0,0,0,0,13.9,13.69,13.69,0,0,0-1.81,6.956c0,6.276,3.886,11.376,8.689,11.376s8.712-5.085,8.712-11.361a13.7,13.7,0,0,0-1.817-6.956,14.209,14.209,0,0,0,0-13.9,14.209,14.209,0,0,0,0-13.9Z" transform="translate(-69.454 -217.906)" fill="#3f3d56"/>
      <ellipse id="Ellipse_52" data-name="Ellipse 52" cx="8.689" cy="11.376" rx="8.689" ry="11.376" transform="translate(32.756 165.196)" fill="#3f3d56"/>
      <ellipse id="Ellipse_53" data-name="Ellipse 53" cx="8.689" cy="11.376" rx="8.689" ry="11.376" transform="translate(32.756 151.292)" fill="#3f3d56"/>
      <path id="Path_667" data-name="Path 667" d="M68.235,229.95A41.48,41.48,0,0,1,65,225.186l22.837-3.749-24.715.221a41.7,41.7,0,0,1-.764-32.984l33.137,17.187L64.952,183.4a41.627,41.627,0,1,1,68.717,46.575,41.643,41.643,0,0,1,4.749,7.589l-29.655,15.4,31.61-10.605a41.681,41.681,0,0,1-6.719,39.092,41.627,41.627,0,1,1-65.434,0,41.627,41.627,0,0,1,0-51.476Z" transform="translate(-59.309 -162.439)" fill="#6c63ff"/>
      <path id="Path_668" data-name="Path 668" d="M142.564,284.38a41.436,41.436,0,0,1-8.91,25.738,41.627,41.627,0,1,1-65.434,0C62.639,303.033,142.564,279.707,142.564,284.38Z" transform="translate(-59.309 -191.13)" opacity="0.1"/>
    </g>
    <g id="Group_594" data-name="Group 594" transform="translate(99.93 63.648)" opacity="0.1">
      <ellipse id="Ellipse_54" data-name="Ellipse 54" cx="6.498" cy="8.498" rx="6.498" ry="8.498" transform="translate(24.471 175.348)" fill="#3f3d56"/>
      <path id="Path_669" data-name="Path 669" d="M226.566,435.018a10.254,10.254,0,0,0,1.351-5.192c0-4.7-2.9-8.506-6.49-8.506s-6.5,3.818-6.5,8.506a10.254,10.254,0,0,0,1.359,5.192,10.613,10.613,0,0,0,0,10.392,10.613,10.613,0,0,0,0,10.391,10.254,10.254,0,0,0-1.359,5.192c0,4.7,2.909,8.506,6.5,8.506s6.49-3.818,6.49-8.506a10.254,10.254,0,0,0-1.351-5.192,10.689,10.689,0,0,0,0-10.391,10.689,10.689,0,0,0,0-10.391Z" transform="translate(-190.459 -287.538)" fill="#3f3d56"/>
      <ellipse id="Ellipse_55" data-name="Ellipse 55" cx="6.498" cy="8.498" rx="6.498" ry="8.498" transform="translate(24.471 123.398)" fill="#3f3d56"/>
      <ellipse id="Ellipse_56" data-name="Ellipse 56" cx="6.498" cy="8.498" rx="6.498" ry="8.498" transform="translate(24.471 113.006)" fill="#3f3d56"/>
      <path id="Path_670" data-name="Path 670" d="M189.538,296.5a30.7,30.7,0,0,1-2.42-3.558l17.065-2.8-18.454.137a31.182,31.182,0,0,1-.6-24.654l24.761,12.85-22.837-16.8a31.113,31.113,0,1,1,51.377,34.816,30.633,30.633,0,0,1,3.55,5.673l-22.142,11.506,23.616-7.925a31.121,31.121,0,0,1-5.016,29.212,31.106,31.106,0,1,1-48.865,0,31.106,31.106,0,0,1,0-38.466Z" transform="translate(-182.88 -246.103)" fill="#6c63ff"/>
      <path id="Path_671" data-name="Path 671" d="M245.1,337.158a30.976,30.976,0,0,1-6.658,19.233,31.106,31.106,0,1,1-48.865,0C185.374,351.1,245.1,333.669,245.1,337.158Z" transform="translate(-182.885 -267.527)" opacity="0.1"/>
    </g>
    <ellipse id="Ellipse_57" data-name="Ellipse 57" cx="418.408" cy="6.765" rx="418.408" ry="6.765" transform="translate(0 369.664)" fill="#6c63ff" opacity="0.1"/>
    <ellipse id="Ellipse_58" data-name="Ellipse 58" cx="418.408" cy="6.765" rx="418.408" ry="6.765" transform="translate(0 425.21)" fill="#6c63ff" opacity="0.1"/>
    <ellipse id="Ellipse_59" data-name="Ellipse 59" cx="418.408" cy="6.765" rx="418.408" ry="6.765" transform="translate(0 253.739)" fill="#6c63ff" opacity="0.1"/>
    <ellipse id="Ellipse_60" data-name="Ellipse 60" cx="418.408" cy="6.765" rx="418.408" ry="6.765" transform="translate(0 311.698)" fill="#6c63ff" opacity="0.1"/>
    <path id="Path_672" data-name="Path 672" d="M847.824,267.239a13.972,13.972,0,0,0-8.093.886,11.949,11.949,0,0,1-9.727,0,13.652,13.652,0,0,0-11.453.221,7.055,7.055,0,0,1-3.291.825c-4.642,0-8.5-4.673-9.3-10.834a9.07,9.07,0,0,0,2.291-2.5c2.718-4.383,6.925-7.2,11.659-7.2s8.887,2.779,11.605,7.116a8.918,8.918,0,0,0,7.7,4.23h.122C843.075,259.948,846.274,262.91,847.824,267.239Z" transform="translate(-230.297 -183.055)" fill="#6c63ff" opacity="0.1"/>
    <path id="Path_673" data-name="Path 673" d="M861.952,242.544l-7.5,4.749,4.581-8.277a7.407,7.407,0,0,0-4.535-1.611h-.122a8.666,8.666,0,0,1-1.527-.115L850.27,238.9l1.092-1.985a9,9,0,0,1-4.451-3.375l-4.581,2.886,2.871-5.222a13.3,13.3,0,0,0-10.185-5.146c-4.734,0-8.941,2.81-11.667,7.192a8.712,8.712,0,0,1-7.7,4.154h-.252c-5.222,0-9.452,5.917-9.452,13.217s4.23,13.224,9.452,13.224a7.169,7.169,0,0,0,3.291-.825,13.636,13.636,0,0,1,11.453-.229,11.873,11.873,0,0,0,9.727,0,13.682,13.682,0,0,1,11.346.221,7.1,7.1,0,0,0,3.253.809c5.223,0,9.452-5.925,9.452-13.224A16.744,16.744,0,0,0,861.952,242.544Z" transform="translate(-230.293 -177.715)" fill="#6c63ff" opacity="0.1"/>
    <path id="Path_674" data-name="Path 674" d="M434.189,263.558a9.8,9.8,0,0,0-5.673.618,8.338,8.338,0,0,1-6.8,0,9.529,9.529,0,0,0-8.009.16,5.055,5.055,0,0,1-2.291.573c-3.245,0-5.948-3.268-6.513-7.582a6.352,6.352,0,0,0,1.626-1.748c1.9-3.054,4.848-5.039,8.162-5.039s6.223,1.947,8.124,4.978a6.253,6.253,0,0,0,5.4,2.962h.084C430.86,258.465,433.1,260.542,434.189,263.558Z" transform="translate(-135.454 -183.504)" fill="#6c63ff" opacity="0.1"/>
    <path id="Path_675" data-name="Path 675" d="M444.071,246.284l-5.245,3.329,3.184-5.8a5.154,5.154,0,0,0-3.169-1.13h-.092a5.72,5.72,0,0,1-1.084-.084l-1.779,1.13.764-1.39a6.337,6.337,0,0,1-3.115-2.359L430.351,242l2.016-3.65a9.322,9.322,0,0,0-7.131-3.611c-3.314,0-6.261,1.97-8.162,5.039a6.108,6.108,0,0,1-5.4,2.909H411.5c-3.657,0-6.62,4.138-6.62,9.254s2.962,9.254,6.62,9.254a4.962,4.962,0,0,0,2.291-.58,9.544,9.544,0,0,1,8-.153,8.2,8.2,0,0,0,6.811.046,9.575,9.575,0,0,1,7.941.153,4.948,4.948,0,0,0,2.291.565c3.65,0,6.612-4.146,6.612-9.254a11.7,11.7,0,0,0-1.374-5.688Z" transform="translate(-135.449 -179.767)" fill="#6c63ff" opacity="0.1"/>
    <path id="Path_676" data-name="Path 676" d="M321.59,341.968a9.788,9.788,0,0,1,5.665.618,8.352,8.352,0,0,0,6.811,0,9.559,9.559,0,0,1,8.009.153,4.939,4.939,0,0,0,2.291.58c3.245,0,5.948-3.275,6.505-7.589a6.222,6.222,0,0,1-1.619-1.748c-1.909-3.054-4.856-5.032-8.162-5.032s-6.223,1.939-8.132,4.978a6.253,6.253,0,0,1-5.39,2.962h-.084C324.911,336.906,322.667,338.975,321.59,341.968Z" transform="translate(-115.753 -202.046)" fill="#6c63ff" opacity="0.1"/>
    <path id="Path_677" data-name="Path 677" d="M308.211,324.727l5.253,3.329-3.191-5.787a5.184,5.184,0,0,1,3.176-1.138h.084a6.509,6.509,0,0,0,1.092-.076l1.779,1.122-.764-1.382a6.33,6.33,0,0,0,3.108-2.359l3.184,2.016-1.985-3.657a9.315,9.315,0,0,1,7.131-3.6c3.306,0,6.261,1.97,8.162,5.039a6.108,6.108,0,0,0,5.39,2.909h.183c3.65,0,6.612,4.146,6.612,9.254s-2.962,9.254-6.612,9.254a4.955,4.955,0,0,1-2.291-.573,9.529,9.529,0,0,0-8.009-.16,8.292,8.292,0,0,1-3.421.764,8.4,8.4,0,0,1-3.39-.718,9.559,9.559,0,0,0-7.933.153,4.948,4.948,0,0,1-2.291.565c-3.657,0-6.62-4.138-6.62-9.254A11.789,11.789,0,0,1,308.211,324.727Z" transform="translate(-112.269 -198.319)" fill="#6c63ff" opacity="0.1"/>
    <path id="Path_678" data-name="Path 678" d="M713.656,627.71c1.993-3.7-.267-8.216-2.863-11.506s-5.772-6.719-5.7-10.911c.1-6.024,6.5-9.59,11.605-12.781a56.732,56.732,0,0,0,10.422-8.4,15.368,15.368,0,0,0,3.2-4.291c1.061-2.352,1.031-5.039.962-7.635q-.328-12.9-1.275-25.776" transform="translate(-206.443 -253.472)" fill="none" stroke="#3f3d56" stroke-miterlimit="10" stroke-width="4"/>
    <path id="Path_679" data-name="Path 679" d="M744.631,543.073a9.4,9.4,0,0,0-4.7-7.7l-2.107,4.161.069-5.039a9.4,9.4,0,1,0,6.734,8.582Z" transform="translate(-211.351 -250.562)" fill="#ff490c"/>
    <path id="Path_680" data-name="Path 680" d="M722.99,624.952a9.4,9.4,0,0,1-17.744-3.818,9.162,9.162,0,0,1,.611-3.818,9.407,9.407,0,0,1,17.561.1l-5.871,4.78,6.459-1.527A9.345,9.345,0,0,1,722.99,624.952Z" transform="translate(-206.477 -268.825)" fill="#ff490c"/>
    <path id="Path_681" data-name="Path 681" d="M719.362,599.449a9.4,9.4,0,0,1-2.978-18.439l-.053,3.871,2.13-4.215h0a9.4,9.4,0,1,1,.878,18.783Z" transform="translate(-207.491 -261.57)" fill="#ff490c"/>
    <path id="Path_682" data-name="Path 682" d="M749.239,579.562A9.4,9.4,0,1,1,753.392,562l-1.657,4.581,3.382-3.344a9.4,9.4,0,0,1-5.91,16.316Z" transform="translate(-214.546 -256.869)" fill="#ff490c"/>
    <path id="Path_683" data-name="Path 683" d="M743.359,547.174c-2.168.237-4.276.909-6.459,1.046s-4.581-.389-5.94-2.077a30.128,30.128,0,0,1-1.741-3.054,6.689,6.689,0,0,0-2.367-2.229,9.4,9.4,0,1,0,17.561,6.246C744.069,547.113,743.71,547.136,743.359,547.174Z" transform="translate(-211.347 -252.159)" opacity="0.1"/>
    <path id="Path_684" data-name="Path 684" d="M749.251,581.227a9.4,9.4,0,0,1-8.941-13.407,6.956,6.956,0,0,1,1.886,1.893,31.855,31.855,0,0,0,1.863,3.108c1.466,1.718,3.97,2.29,6.238,2.176s4.459-.764,6.719-.954c.313,0,.626-.046.947-.053a9.4,9.4,0,0,1-8.712,7.238Z" transform="translate(-214.559 -258.535)" opacity="0.1"/>
    <path id="Path_685" data-name="Path 685" d="M719.363,601.172a9.4,9.4,0,0,1-9.017-13.232,7.634,7.634,0,0,1,1.993,1.909,31.49,31.49,0,0,0,2.039,3.169c1.58,1.764,4.253,2.39,6.65,2.291s4.581-.618,6.872-.763A9.414,9.414,0,0,1,719.363,601.172Z" transform="translate(-207.492 -263.293)" opacity="0.1"/>
    <path id="Path_686" data-name="Path 686" d="M722.99,626.805a9.4,9.4,0,0,1-17.744-3.818,9.162,9.162,0,0,1,.611-3.818,9.383,9.383,0,0,1,2.062,1.84c.893,1.084,1.481,2.291,2.52,3.337,1.916,1.886,5.024,2.665,7.78,2.733a39.481,39.481,0,0,0,4.772-.275Z" transform="translate(-206.477 -270.678)" opacity="0.1"/>
    <path id="Path_687" data-name="Path 687" d="M103.656,555.709c1.993-3.7-.267-8.215-2.863-11.506s-5.772-6.734-5.7-10.911c.1-6.024,6.5-9.59,11.605-12.781a56.731,56.731,0,0,0,10.422-8.4,15.371,15.371,0,0,0,3.2-4.291c1.061-2.352,1.031-5.039.962-7.635q-.336-12.9-1.275-25.776" transform="translate(-62.19 -236.445)" fill="none" stroke="#3f3d56" stroke-miterlimit="10" stroke-width="4"/>
    <path id="Path_688" data-name="Path 688" d="M134.631,471.073a9.4,9.4,0,0,0-4.7-7.7l-2.107,4.161.069-5.039a9.4,9.4,0,1,0,6.734,8.582Z" transform="translate(-67.098 -233.536)" fill="#ff490c"/>
    <path id="Path_689" data-name="Path 689" d="M112.99,552.952a9.4,9.4,0,0,1-17.744-3.818,9.162,9.162,0,0,1,.611-3.818,9.407,9.407,0,0,1,17.561.1l-5.871,4.78,6.459-1.527a9.345,9.345,0,0,1-1.015,4.283Z" transform="translate(-62.224 -251.798)" fill="#ff490c"/>
    <path id="Path_690" data-name="Path 690" d="M109.362,527.449a9.4,9.4,0,0,1-2.978-18.439l-.053,3.871,2.13-4.215h0a9.4,9.4,0,1,1,.878,18.783Z" transform="translate(-63.237 -244.544)" fill="#ff490c"/>
    <path id="Path_691" data-name="Path 691" d="M139.239,507.562A9.4,9.4,0,1,1,143.392,490l-1.657,4.581,3.382-3.344a9.4,9.4,0,0,1-5.91,16.316Z" transform="translate(-70.293 -239.842)" fill="#ff490c"/>
    <path id="Path_692" data-name="Path 692" d="M133.359,475.174c-2.168.237-4.276.909-6.459,1.046s-4.581-.389-5.94-2.077a30.141,30.141,0,0,1-1.741-3.054,6.689,6.689,0,0,0-2.367-2.229,9.4,9.4,0,1,0,17.561,6.246C134.069,475.113,133.71,475.136,133.359,475.174Z" transform="translate(-67.093 -235.132)" opacity="0.1"/>
    <path id="Path_693" data-name="Path 693" d="M139.251,509.227a9.4,9.4,0,0,1-8.941-13.407,6.955,6.955,0,0,1,1.886,1.893,31.859,31.859,0,0,0,1.863,3.108c1.466,1.718,3.97,2.291,6.238,2.176s4.459-.764,6.719-.954c.313,0,.626-.046.947-.053A9.4,9.4,0,0,1,139.251,509.227Z" transform="translate(-70.305 -241.508)" opacity="0.1"/>
    <path id="Path_694" data-name="Path 694" d="M109.363,529.172a9.4,9.4,0,0,1-9.017-13.232,7.635,7.635,0,0,1,1.993,1.909,31.488,31.488,0,0,0,2.039,3.169c1.58,1.764,4.253,2.39,6.65,2.291s4.581-.618,6.872-.763A9.414,9.414,0,0,1,109.363,529.172Z" transform="translate(-63.238 -246.266)" opacity="0.1"/>
    <path id="Path_695" data-name="Path 695" d="M112.99,554.805a9.4,9.4,0,0,1-17.744-3.818,9.162,9.162,0,0,1,.611-3.818,9.386,9.386,0,0,1,2.062,1.84c.893,1.084,1.481,2.291,2.52,3.337,1.916,1.886,5.024,2.665,7.78,2.733a39.47,39.47,0,0,0,4.772-.275Z" transform="translate(-62.224 -253.651)" opacity="0.1"/>
    <path id="Path_696" data-name="Path 696" d="M507.054,473.344c-1.993-3.688.267-8.208,2.871-11.5s5.765-6.719,5.7-10.911c-.092-6.032-6.49-9.59-11.605-12.781a56.5,56.5,0,0,1-10.414-8.4,15.1,15.1,0,0,1-3.207-4.283c-1.054-2.359-1.023-5.039-.962-7.635q.344-12.9,1.275-25.776" transform="translate(-155.439 -216.971)" fill="none" stroke="#3f3d56" stroke-miterlimit="10" stroke-width="4"/>
    <path id="Path_697" data-name="Path 697" d="M478.387,388.713a9.391,9.391,0,0,1,4.688-7.7l2.107,4.161-.061-5.039a9.637,9.637,0,0,1,3.092-.374,9.4,9.4,0,1,1-9.826,8.956Z" transform="translate(-152.83 -214.059)" fill="#ff490c"/>
    <path id="Path_698" data-name="Path 698" d="M500.018,470.569a9.4,9.4,0,1,0-.45-7.566l5.871,4.78-6.459-1.527A9.347,9.347,0,0,0,500.018,470.569Z" transform="translate(-157.702 -232.298)" fill="#ff490c"/>
    <path id="Path_699" data-name="Path 699" d="M503.645,445.089a9.4,9.4,0,0,0,2.985-18.439l.046,3.871-2.13-4.215h0a9.4,9.4,0,0,0-9.849,8.926,9.284,9.284,0,0,0,.4,3.207,9.391,9.391,0,0,0,8.544,6.65Z" transform="translate(-156.687 -225.067)" fill="#ff490c"/>
    <path id="Path_700" data-name="Path 700" d="M473.758,425.182a9.4,9.4,0,1,0-4.161-17.561l1.664,4.581-3.421-3.276a9.323,9.323,0,0,0-3.054,6.49,9.093,9.093,0,0,0,.237,2.588,9.391,9.391,0,0,0,8.735,7.177Z" transform="translate(-149.613 -220.361)" fill="#ff490c"/>
    <path id="Path_701" data-name="Path 701" d="M479.724,392.814c2.168.237,4.276.909,6.452,1.046s4.581-.389,5.948-2.077a30.078,30.078,0,0,0,1.733-3.054,6.712,6.712,0,0,1,2.375-2.229,9.4,9.4,0,1,1-17.561,6.238C479.014,392.746,479.365,392.776,479.724,392.814Z" transform="translate(-152.899 -215.656)" opacity="0.1"/>
    <path id="Path_702" data-name="Path 702" d="M473.842,426.847a9.407,9.407,0,0,0,8.941-13.407,6.987,6.987,0,0,0-1.893,1.894,31.847,31.847,0,0,1-1.863,3.107c-1.458,1.718-3.963,2.291-6.23,2.176s-4.459-.764-6.719-.954c-.313,0-.634-.046-.947-.053a9.391,9.391,0,0,0,8.712,7.238Z" transform="translate(-149.697 -222.027)" opacity="0.1"/>
    <path id="Path_703" data-name="Path 703" d="M503.776,446.812a9.391,9.391,0,0,0,9.017-13.232,7.505,7.505,0,0,0-1.985,1.909,31.481,31.481,0,0,1-2.039,3.169c-1.588,1.764-4.253,2.39-6.658,2.291s-4.581-.618-6.872-.764a9.391,9.391,0,0,0,8.536,6.627Z" transform="translate(-156.818 -226.789)" opacity="0.1"/>
    <path id="Path_704" data-name="Path 704" d="M500.34,472.445a9.4,9.4,0,0,0,17.141-7.635,9.025,9.025,0,0,0-2.061,1.84c-.893,1.084-1.527,2.291-2.52,3.337-1.924,1.886-5.024,2.665-7.788,2.733a41.194,41.194,0,0,1-4.772-.275Z" transform="translate(-158.024 -234.175)" opacity="0.1"/>
    <circle id="Ellipse_61" data-name="Ellipse 61" cx="76.321" cy="76.321" r="76.321" transform="translate(519.017 105.449)" fill="#3f3d56"/>
    <path id="Path_705" data-name="Path 705" d="M853.719,409.719c-2.657-2.657-9.048-6.666-12.216-8.162-3.657-1.756-5-1.726-7.589.145-2.153,1.527-3.55,3-6.024,2.459s-7.376-4.238-12.117-8.964-8.422-9.6-8.948-12.109.924-3.879,2.466-6.032c1.863-2.588,1.916-3.932.145-7.589-1.527-3.169-5.49-9.544-8.17-12.216s-3.26-2.084-4.726-1.527a27.333,27.333,0,0,0-4.329,2.291c-2.657,1.779-4.146,3.26-5.192,5.49s-2.229,6.368,3.856,17.2a95.968,95.968,0,0,0,16.874,22.5h0a96.111,96.111,0,0,0,22.577,16.9c10.827,6.108,14.973,4.894,17.2,3.856s3.711-2.512,5.482-5.192a26.975,26.975,0,0,0,2.291-4.329C855.8,412.979,856.4,412.384,853.719,409.719Z" transform="translate(-225.617 -208.265)" fill="#ff490c"/>
    <path id="Path_706" data-name="Path 706" d="M808.07,300.86a76.352,76.352,0,1,0,76.314,76.326A76.352,76.352,0,0,0,808.07,300.86Zm0,142.488a66.174,66.174,0,1,1,66.174-66.174A66.174,66.174,0,0,1,808.07,443.348Z" transform="translate(-212.732 -195.404)" opacity="0.1"/>
    <circle id="Ellipse_62" data-name="Ellipse 62" cx="76.321" cy="76.321" r="76.321" transform="translate(343.675 221.374)" fill="#3f3d56"/>
    <path id="Path_707" data-name="Path 707" d="M631.808,522.39l-22.852,23.249a.412.412,0,0,0,0,.6l16.034,17.049a2.759,2.759,0,1,1-3.9,3.9L605.138,550.2a.435.435,0,0,0-.611,0l-3.886,3.924a17.08,17.08,0,0,1-12.216,5.138,17.454,17.454,0,0,1-12.43-5.284l-3.734-3.818a.435.435,0,0,0-.611,0l-15.912,16.95a2.759,2.759,0,1,1-3.9-3.9L567.81,546.2a.458.458,0,0,0,0-.6l-22.852-23.249a.42.42,0,0,0-.718.3v46.521a6.811,6.811,0,0,0,6.788,6.788h74.726a6.81,6.81,0,0,0,6.788-6.788V522.688a.42.42,0,0,0-.733-.3Z" transform="translate(-168.405 -247.753)" fill="#ff490c"/>
    <path id="Path_708" data-name="Path 708" d="M589.208,551.47a11.56,11.56,0,0,0,8.338-3.436l33.282-33.877a6.642,6.642,0,0,0-4.2-1.527H551.849a6.6,6.6,0,0,0-4.2,1.527l33.289,33.877A11.514,11.514,0,0,0,589.208,551.47Z" transform="translate(-169.212 -245.483)" fill="#ff490c"/>
    <path id="Path_709" data-name="Path 709" d="M577.16,452.69a76.352,76.352,0,1,0,76.314,76.326A76.352,76.352,0,0,0,577.16,452.69Zm0,142.488A66.174,66.174,0,1,1,643.334,529,66.174,66.174,0,0,1,577.16,595.178Z" transform="translate(-158.126 -231.309)" opacity="0.1"/>
    <circle id="Ellipse_63" data-name="Ellipse 63" cx="76.321" cy="76.321" r="76.321" transform="translate(162.546 164.377)" fill="#3f3d56"/>
    <path id="Path_710" data-name="Path 710" d="M355.426,430.16,325,500.358l2.84,2.84,27.594-12.171L383.027,503.2l2.84-2.84Z" transform="translate(-116.559 -225.981)" fill="#ff490c"/>
    <path id="Path_711" data-name="Path 711" d="M341.19,378a76.307,76.307,0,1,0,.013,0Zm0,142.488a54.461,54.461,0,1,1,.008.031Z" transform="translate(-102.323 -213.646)" fill="#323335" opacity="0.1"/>
    <path id="Path_712" data-name="Path 712" d="M829.642,593.612q-1.038-2.535-2.13-5.055a15,15,0,0,0-2.6-4.5,4.764,4.764,0,0,0-1.527-1.145,6.514,6.514,0,0,0-1.993-.4,15.907,15.907,0,0,0-3.13-.084c-.4-.122-.863-.282-1.313-.466a10.9,10.9,0,0,0,8.124-10.117v-.466a10.88,10.88,0,0,0-10.834-10.926,10.69,10.69,0,0,0-5.688,1.626,10.208,10.208,0,0,0-11.453,5.52A12.621,12.621,0,0,0,793.2,577c0,.16,0,.328,0,.481.2,5.933,4.031,10.689,8.872,11.17a5.087,5.087,0,0,0-1.4.939c-1.481,1.428-1.726,3.7-1.886,5.757l-.115,1.527-2.565.916a.473.473,0,0,0-.115.832l2.451,1.748v.435a1.91,1.91,0,0,0,.046.5,3.5,3.5,0,0,0-.947,1.352,6.245,6.245,0,0,0-.221,2.474l.092,2.13a16.728,16.728,0,0,0,.649,4.741c.321.947,1.71,3.23,2.711,3.245-.924,4.2-1.168,13.056-1.168,13.056-.115.115.206.221.763.313.55,4.215,2.344,16.034,5.528,21.233a44.77,44.77,0,0,1,1.2,5.161s.909,11.231,2.107,14.568c1.023,2.84,1.832,9.849,2.054,11.88a1.168,1.168,0,0,0-.848.87c-.6,1.817-4.512,4.581-4.512,4.581a18.9,18.9,0,0,0-3.375,2.161c-1.229,1.107-1.183,2.107,4.276,1.481,10.537-1.214,12.338-4.581,12.338-4.581s-.168-.565-.42-1.3a14.1,14.1,0,0,0-1.382-3.26c-.153-.145-.305.1-.489.481a65.378,65.378,0,0,1-.718-14.744s.3-5.161-1.206-8.8a16.668,16.668,0,0,1,0-5.765c.6-2.428-2.405-14.27-2.405-14.27l-1.726-8.719a2.5,2.5,0,0,1,.481,1.016l.046.176.046.252a.474.474,0,0,0,.122.237c1.176,4.887,4.4,18.424,4.4,20.409,0,2.428,3.008,8.5,3.008,8.5s1.2,10.017,3.306,13.957c1.6,3,1.642,7.4,1.565,9.338h0s-.359,2.5-.962,3.1a7.376,7.376,0,0,0-1.138,1.978l-.069.145s-.9,1.825-.3,2.13a14.79,14.79,0,0,0,7.223.909s1.206-1.527,1.206-2.123a9.553,9.553,0,0,0-.137-1.084c-.221-1.435-.634-3.7-.641-3.718.252-.977-.764-3.7-.764-3.7l-.305-8.5a39.229,39.229,0,0,0-2.107-17s-1.527-5.459-1.2-6.979-.6-17.607-.6-17.607l-.092-.229a17.391,17.391,0,0,1,.092-3.413c.3-3.642-.9-11.231-1.206-11.529a10,10,0,0,1-.427-2.512c.069-.634.275-2.489.557-4.795a86.181,86.181,0,0,0,8.872-.764,1.107,1.107,0,0,0,.763-.305,1.069,1.069,0,0,0,.176-.618C833.047,602.286,831.375,597.842,829.642,593.612Zm-6.055,9.628c.313-2.176.649-4.283.985-5.849l.046.137a42.463,42.463,0,0,1,1.451,4.81A16.367,16.367,0,0,1,823.587,603.24Z" transform="translate(-227.279 -256.794)" fill="url(#linear-gradient)"/>
    <path id="Path_713" data-name="Path 713" d="M802.37,648.5s1.8,16.21,5.7,22.509a43.684,43.684,0,0,1,1.2,5.1s.9,11.1,2.1,14.4,2.1,12.308,2.1,12.308,4.2,4.795,5.7.9a63.235,63.235,0,0,1-.9-15.606s.3-5.1-1.2-8.7a16.278,16.278,0,0,1,0-5.7c.6-2.405-2.405-14.1-2.405-14.1l-2.4-11.7Z" transform="translate(-229.448 -277.472)" fill="#be6f72"/>
    <path id="Path_714" data-name="Path 714" d="M821.8,723.521s-1.8,3.3-12.3,4.5c-5.452.618-5.49-.367-4.26-1.466a19.009,19.009,0,0,1,3.359-2.138s3.9-2.7,4.5-4.5,2.7-.3,2.7-.3c3,4.5,3.6-1.206,4.2-.6a13.542,13.542,0,0,1,1.382,3.214C821.63,722.956,821.8,723.521,821.8,723.521Z" transform="translate(-229.971 -294.279)" fill="#ff6f61"/>
    <path id="Path_715" data-name="Path 715" d="M821.8,724.53s-1.8,3.3-12.3,4.5c-5.452.618-5.49-.366-4.26-1.466.855.542,2.581.764,6.055-.634,5-2.046,8.628-3.23,10.086-3.688C821.63,723.965,821.8,724.53,821.8,724.53Z" transform="translate(-229.971 -295.288)" opacity="0.1"/>
    <path id="Path_716" data-name="Path 716" d="M820.7,688.107s.3-5.1-1.2-8.7a16.277,16.277,0,0,1,0-5.7c.6-2.405-2.405-14.1-2.405-14.1l-2.4-11.7-2.077.122,2.375,11.583s3,11.7,2.405,14.1a16.277,16.277,0,0,0,0,5.7c1.527,3.6,1.2,8.7,1.2,8.7a63.23,63.23,0,0,0,.9,15.606,2.628,2.628,0,0,1-.87,1.237,1.961,1.961,0,0,0,2.97-1.237A63.235,63.235,0,0,1,820.7,688.107Z" transform="translate(-231.872 -277.472)" opacity="0.1"/>
    <path id="Path_717" data-name="Path 717" d="M814.134,562.42a10.69,10.69,0,0,0-5.665,1.611,10.193,10.193,0,0,0-11.453,5.459,12.43,12.43,0,0,0-3.886,9.284c0,6.383,4.3,11.552,9.6,11.552,3.818,0,7.162-2.718,8.7-6.65a10.537,10.537,0,0,0,2.7.351,10.8,10.8,0,1,0,0-21.608Z" transform="translate(-227.262 -257.258)" fill="#3f3d56"/>
    <path id="Path_718" data-name="Path 718" d="M828.508,650.65l.9,2.4s.9,15.9.6,17.408,1.206,6.872,1.206,6.872a38.412,38.412,0,0,1,2.1,16.8l.3,8.4s1.2,3.3.6,3.9-5.123-.534-5.123-.534.6-6.3-1.527-10.2-3.3-13.8-3.3-13.8-3-6-3-8.4-4.8-21.905-4.8-21.905Z" transform="translate(-232.78 -278.122)" fill="#be6f72"/>
    <path id="Path_719" data-name="Path 719" d="M801.573,644.409s.305-10.8,1.527-14.1a22.4,22.4,0,0,0,1.336-4.787S822.6,628.8,824.1,627.6c0,0,.3,4.2.6,4.5s1.527,7.8,1.2,11.407,0,3.6,0,3.6-12.308,1.8-12.606,0-1.2-1.794-1.2-1.794S800.977,644.974,801.573,644.409Z" transform="translate(-229.254 -272.18)" fill="#3f3d56"/>
    <g id="Group_595" data-name="Group 595" transform="translate(572.318 355.425)" opacity="0.1">
      <path id="Path_720" data-name="Path 720" d="M811.483,650.068s-7.589-.206-9.88-.618v.618c-.6.6,10.506.9,10.506.9a.763.763,0,0,1,.412.168C812.116,650.068,811.483,650.068,811.483,650.068Z" transform="translate(-801.58 -633.263)"/>
      <path id="Path_721" data-name="Path 721" d="M828.289,632.747c-.305-.3-.6-4.5-.6-4.5a1.291,1.291,0,0,1-.512.183,15.174,15.174,0,0,0,.512,3.413,47.662,47.662,0,0,1,1.2,11.407c-.328,3.6,0,3.6,0,3.6s-9.735,1.428-12.094.473a3.636,3.636,0,0,0,.092.428c.3,1.8,12.606,0,12.606,0s-.305,0,0-3.6S828.586,633.052,828.289,632.747Z" transform="translate(-805.177 -628.25)"/>
      <path id="Path_722" data-name="Path 722" d="M811.483,650.068s-7.589-.206-9.88-.618v.618c-.6.6,10.506.9,10.506.9a.763.763,0,0,1,.412.168C812.116,650.068,811.483,650.068,811.483,650.068Z" transform="translate(-801.58 -633.263)"/>
      <path id="Path_723" data-name="Path 723" d="M828.289,632.747c-.305-.3-.6-4.5-.6-4.5a1.291,1.291,0,0,1-.512.183,15.174,15.174,0,0,0,.512,3.413,47.662,47.662,0,0,1,1.2,11.407c-.328,3.6,0,3.6,0,3.6s-9.735,1.428-12.094.473a3.636,3.636,0,0,0,.092.428c.3,1.8,12.606,0,12.606,0s-.305,0,0-3.6S828.586,633.052,828.289,632.747Z" transform="translate(-805.177 -628.25)"/>
    </g>
    <path id="Path_724" data-name="Path 724" d="M816.9,586.224a3.978,3.978,0,0,0,1.145,1.481,2.566,2.566,0,0,0,1.077.466c-.672.389-1.4.68-2.077,1.069a36.919,36.919,0,0,0-3.054,2.291,6.215,6.215,0,0,1-3.5,1.359,4.291,4.291,0,0,0,.489-4.268,3.988,3.988,0,0,1-.534-1.481,2.661,2.661,0,0,1,1.474-1.985c.573-.389,1.161-.763,1.756-1.138.466-.29,1.168-.9,1.756-.878s.657.542.764,1.077A8.46,8.46,0,0,0,816.9,586.224Z" transform="translate(-231.357 -262.157)" fill="#be6f72"/>
    <path id="Path_725" data-name="Path 725" d="M816.9,586.224a3.978,3.978,0,0,0,1.145,1.481,2.566,2.566,0,0,0,1.077.466c-.672.389-1.4.68-2.077,1.069a36.919,36.919,0,0,0-3.054,2.291,6.215,6.215,0,0,1-3.5,1.359,4.291,4.291,0,0,0,.489-4.268,3.988,3.988,0,0,1-.534-1.481,2.661,2.661,0,0,1,1.474-1.985c.573-.389,1.161-.763,1.756-1.138.466-.29,1.168-.9,1.756-.878s.657.542.764,1.077A8.46,8.46,0,0,0,816.9,586.224Z" transform="translate(-231.357 -262.157)" opacity="0.1"/>
    <circle id="Ellipse_64" data-name="Ellipse 64" cx="6.902" cy="6.902" r="6.902" transform="translate(585.672 327.969)" fill="#be6f72"/>
    <path id="Path_726" data-name="Path 726" d="M838.214,727.429c0,.6-1.2,2.1-1.2,2.1a14.858,14.858,0,0,1-7.2-.9c-.6-.3.3-2.1.3-2.1l.069-.145a7.284,7.284,0,0,1,1.138-1.955c.6-.6.954-3.054.954-3.054,1.863-3.054,5.169,1.321,5.169,1.321s.42,2.291.641,3.68A10.457,10.457,0,0,1,838.214,727.429Z" transform="translate(-235.889 -294.591)" fill="#ff6f61"/>
    <path id="Path_727" data-name="Path 727" d="M838.214,729.309c0,.6-1.2,2.1-1.2,2.1a14.858,14.858,0,0,1-7.2-.9c-.6-.3.3-2.1.3-2.1l.069-.145a14.507,14.507,0,0,0,6.536,1.344l1.367-1.367C838.161,728.752,838.214,729.156,838.214,729.309Z" transform="translate(-235.889 -296.471)" opacity="0.1"/>
    <circle id="Ellipse_65" data-name="Ellipse 65" cx="6.75" cy="6.75" r="6.75" transform="translate(572.021 313.714)" fill="#be6f72"/>
    <path id="Path_728" data-name="Path 728" d="M802.223,599.581c-1.481,1.412-1.726,3.65-1.878,5.688l-.229,2.985a15.061,15.061,0,0,0-.053,2.42c0,.5.122,1,.168,1.527s.061,1.191.069,1.794v4.413a5.207,5.207,0,0,0,.489,2.649,1.8,1.8,0,0,0,2.291.825,2.611,2.611,0,0,0,.947-1.466,22.79,22.79,0,0,0,1.527-5.589c.061-.664.069-1.328.13-1.993s.176-1.359.275-2.031c.428-2.81.618-5.65.809-8.483.053-.84.809-4.146-.29-4.512-.534-.176-1.642.374-2.153.557a6.063,6.063,0,0,0-2.1,1.214Z" transform="translate(-228.896 -265.618)" fill="#be6f72"/>
    <path id="Path_729" data-name="Path 729" d="M802.223,599.581c-1.481,1.412-1.726,3.65-1.878,5.688l-.229,2.985a15.061,15.061,0,0,0-.053,2.42c0,.5.122,1,.168,1.527s.061,1.191.069,1.794v4.413a5.207,5.207,0,0,0,.489,2.649,1.8,1.8,0,0,0,2.291.825,2.611,2.611,0,0,0,.947-1.466,22.79,22.79,0,0,0,1.527-5.589c.061-.664.069-1.328.13-1.993s.176-1.359.275-2.031c.428-2.81.618-5.65.809-8.483.053-.84.809-4.146-.29-4.512-.534-.176-1.642.374-2.153.557a6.063,6.063,0,0,0-2.1,1.214Z" transform="translate(-228.896 -265.618)" opacity="0.1"/>
    <path id="Path_730" data-name="Path 730" d="M817.267,588.16s-5.1,3.9-8.1,4.8c0,0-1.779,2.031-2.084,2.52s-.916,5.879-1.527,7.085-2.1,3.9,0,6.6c0,0,.6,2.7.3,3.6s-1.39,4.2-.4,4.352,4,2.245,6.7,1.649,12.758,2.291,12.758,2.291,1.664-15.461,2.871-18.195l-2.7-.9s-7.5-4.5-3-11.4C822.069,590.565,817.854,589.664,817.267,588.16Z" transform="translate(-229.945 -263.345)" fill="#ff6f61"/>
    <path id="Path_731" data-name="Path 731" d="M796.781,611.228l6.2,4.39a.458.458,0,0,0,.542,0l1.68-1.26a.473.473,0,0,0,0-.718L800.43,609.4a.458.458,0,0,0-.466-.092l-3.062,1.1a.466.466,0,0,0-.122.817Z" transform="translate(-228.081 -268.34)" fill="#3f3d56"/>
    <path id="Path_732" data-name="Path 732" d="M799.329,625.491a16.616,16.616,0,0,1-.649-4.68l-.092-2.115a6.107,6.107,0,0,1,.221-2.443A3.993,3.993,0,0,1,801.383,614a8.885,8.885,0,0,1,3.5-.252.9.9,0,0,1,.451.122.84.84,0,0,1,.244.412,2.764,2.764,0,0,1,.137,2.206,2.289,2.289,0,0,1-.7.725c-.832.6-1.8.992-2.588,1.642a.939.939,0,0,0-.351.443,1.031,1.031,0,0,0,0,.481,7.7,7.7,0,0,0,.4,1.229,1.214,1.214,0,0,0,.344.519c.145.122.336.168.489.283.328.267,1.016.618.977,1.038-.115,1.527-1.031,3.237-1.39,4.749C802.207,630.553,799.772,626.781,799.329,625.491Z" transform="translate(-228.545 -269.379)" fill="#be6f72"/>
    <g id="Group_596" data-name="Group 596" transform="translate(580.259 339.07)" opacity="0.1">
      <path id="Path_733" data-name="Path 733" d="M812.148,628.228h-.168a5.141,5.141,0,0,0,1.962,0h.191A6.873,6.873,0,0,0,812.148,628.228Z" transform="translate(-811.98 -611.873)"/>
      <path id="Path_734" data-name="Path 734" d="M831.917,606.83c-1.077,2.42-2.665,15.53-2.947,18.134,1.054.275,1.748.473,1.748.473s1.649-15.423,2.856-18.157Z" transform="translate(-815.998 -606.83)"/>
    </g>
    <path id="Path_735" data-name="Path 735" d="M824.515,599.061a2.29,2.29,0,0,0,.985,1.489,13.216,13.216,0,0,1,1.748,1.771,12.545,12.545,0,0,1,1.733,3.474,42.561,42.561,0,0,1,1.443,4.749c-3.818,1.771-8.154,1.687-12.216,2.855a9.75,9.75,0,0,0-4.581,2.711,6.314,6.314,0,0,0-1.687,4.97.648.648,0,0,0,.092.3.641.641,0,0,0,.534.214,4.581,4.581,0,0,0,2.8-.962,13.332,13.332,0,0,0,2.145-2.107,3.453,3.453,0,0,1,1.527-1.13,24.991,24.991,0,0,1,6.872-.672,86.6,86.6,0,0,0,10.239-.809.825.825,0,0,0,.916-.916c.336-4.5-1.336-8.9-3.054-13.079q-1.031-2.512-2.123-5a14.813,14.813,0,0,0-2.6-4.444,4.58,4.58,0,0,0-1.527-1.13,6.458,6.458,0,0,0-2.046-.382,14.509,14.509,0,0,0-3.352-.061,7.142,7.142,0,0,0-.321,1.733,15.015,15.015,0,0,0,1.848,5.856C824.011,598.771,824.339,598.786,824.515,599.061Z" transform="translate(-231.704 -263.976)" fill="#be6f72"/>
    <path id="Path_736" data-name="Path 736" d="M812.173,606.67a5.6,5.6,0,0,0-.764,2.917,3.929,3.929,0,0,0,.191,1.191,3.863,3.863,0,0,0,2.436,2.291" transform="translate(-231.586 -267.722)" fill="none" stroke="#000" stroke-miterlimit="10" stroke-width="1" opacity="0.1"/>
    <path id="Path_737" data-name="Path 737" d="M813.22,573.075a3.505,3.505,0,0,0-1.107.176c-1-1.527-3.352-2.581-6.108-2.581-3.65,0-6.6,1.886-6.6,4.207s2.955,4.2,6.6,4.2a9.292,9.292,0,0,0,3.963-.84,3.6,3.6,0,1,0,3.237-5.161Z" transform="translate(-228.746 -259.209)" fill="#3f3d56"/>
    <path id="Path_738" data-name="Path 738" d="M813.513,580.268a3.589,3.589,0,0,1-3.238-2.039,9.291,9.291,0,0,1-3.962.84c-3.642,0-6.6-1.878-6.6-4.2a2.519,2.519,0,0,1,0-.42,2.847,2.847,0,0,0-.336,1.321c0,2.291,2.955,4.2,6.6,4.2a9.291,9.291,0,0,0,3.963-.84,3.6,3.6,0,0,0,6.772-.893A3.581,3.581,0,0,1,813.513,580.268Z" transform="translate(-228.741 -260.102)" opacity="0.1"/>
    <path id="Path_739" data-name="Path 739" d="M797.014,571.262a10.193,10.193,0,0,1,11.453-5.459,10.8,10.8,0,0,1,16.431,8.292v-.9a10.8,10.8,0,0,0-16.469-9.162,10.193,10.193,0,0,0-11.453,5.459,12.43,12.43,0,0,0-3.886,9.284v.9A12.217,12.217,0,0,1,797.014,571.262Z" transform="translate(-227.253 -257.258)" opacity="0.1"/>
    <path id="Path_740" data-name="Path 740" d="M885.736,551.822c1.993-3.688-.267-8.215-2.871-11.506s-5.765-6.711-5.7-10.911c.092-6.024,6.49-9.582,11.605-12.781a56.427,56.427,0,0,0,10.414-8.4,15.217,15.217,0,0,0,3.207-4.283c1.054-2.359,1.023-5.039.962-7.635q-.336-12.9-1.275-25.776" transform="translate(-247.137 -235.527)" fill="none" stroke="#3f3d56" stroke-miterlimit="10" stroke-width="4"/>
    <path id="Path_741" data-name="Path 741" d="M916.7,467.155a9.384,9.384,0,0,0-4.688-7.7l-2.107,4.161.061-5.039a9.224,9.224,0,0,0-3.092-.374,9.4,9.4,0,1,0,9.826,8.948Z" transform="translate(-252.042 -232.61)" fill="#ff490c"/>
    <path id="Path_742" data-name="Path 742" d="M895.07,549.018a9.4,9.4,0,1,1,.451-7.574l-5.872,4.78,6.459-1.527a9.346,9.346,0,0,1-1.039,4.322Z" transform="translate(-247.171 -250.849)" fill="#ff490c"/>
    <path id="Path_743" data-name="Path 743" d="M891.439,523.532a9.4,9.4,0,0,1-2.985-18.439l-.046,3.871,2.13-4.207h0a9.4,9.4,0,1,1,.878,18.783Z" transform="translate(-248.182 -243.619)" fill="#ff490c"/>
    <path id="Path_744" data-name="Path 744" d="M921.311,503.652a9.4,9.4,0,1,1,4.161-17.561l-1.665,4.581,3.421-3.283a9.346,9.346,0,0,1,3.054,6.49,9.072,9.072,0,0,1-.237,2.588A9.4,9.4,0,0,1,921.311,503.652Z" transform="translate(-255.24 -238.918)" fill="#ff490c"/>
    <path id="Path_745" data-name="Path 745" d="M915.438,471.254c-2.168.244-4.283.916-6.459,1.054s-4.581-.389-5.948-2.084a29.158,29.158,0,0,1-1.733-3.054,6.759,6.759,0,0,0-2.367-2.229,9.4,9.4,0,1,0,17.561,6.238C916.141,471.193,915.789,471.216,915.438,471.254Z" transform="translate(-252.039 -234.205)" opacity="0.1"/>
    <path id="Path_746" data-name="Path 746" d="M921.323,505.317a9.407,9.407,0,0,1-8.941-13.407,6.957,6.957,0,0,1,1.894,1.886,30.135,30.135,0,0,0,1.863,3.108c1.458,1.725,3.963,2.29,6.23,2.184s4.459-.764,6.719-.954c.313,0,.634-.053.947-.061a9.4,9.4,0,0,1-8.712,7.246Z" transform="translate(-255.252 -240.583)" opacity="0.1"/>
    <path id="Path_747" data-name="Path 747" d="M891.439,525.247A9.391,9.391,0,0,1,882.422,512a7.75,7.75,0,0,1,1.985,1.909c.763,1.031,1.183,2.222,2.039,3.169,1.588,1.771,4.253,2.39,6.658,2.336s4.581-.626,6.872-.8A9.4,9.4,0,0,1,891.439,525.247Z" transform="translate(-248.182 -245.334)" opacity="0.1"/>
    <path id="Path_748" data-name="Path 748" d="M895.086,550.9a9.407,9.407,0,0,1-17.141-7.635,9.205,9.205,0,0,1,2.062,1.84c.9,1.092,1.489,2.291,2.52,3.344,1.924,1.886,5.024,2.657,7.788,2.733a41.192,41.192,0,0,0,4.772-.283Z" transform="translate(-247.187 -252.727)" opacity="0.1"/>
    <path id="Path_749" data-name="Path 749" d="M1044.736,703.822c1.993-3.688-.267-8.215-2.871-11.506s-5.765-6.711-5.7-10.911c.092-6.024,6.49-9.582,11.605-12.781a56.428,56.428,0,0,0,10.414-8.4,15.219,15.219,0,0,0,3.207-4.283c1.054-2.359,1.023-5.039.962-7.635q-.328-12.9-1.275-25.776" transform="translate(-284.737 -271.473)" fill="none" stroke="#3f3d56" stroke-miterlimit="10" stroke-width="4"/>
    <path id="Path_750" data-name="Path 750" d="M1075.713,619.155a9.384,9.384,0,0,0-4.688-7.7l-2.107,4.161.061-5.039a9.222,9.222,0,0,0-3.054-.374,9.4,9.4,0,1,0,9.826,8.948Z" transform="translate(-289.655 -268.556)" fill="#ff490c"/>
    <path id="Path_751" data-name="Path 751" d="M1054.07,701.018a9.4,9.4,0,1,1,.45-7.574l-5.871,4.78,6.459-1.527a9.343,9.343,0,0,1-1.038,4.321Z" transform="translate(-284.771 -286.794)" fill="#ff490c"/>
    <path id="Path_752" data-name="Path 752" d="M1050.439,675.532a9.4,9.4,0,0,1-2.985-18.439l-.046,3.871,2.13-4.207h0a9.4,9.4,0,1,1,.878,18.783Z" transform="translate(-285.782 -279.564)" fill="#ff490c"/>
    <path id="Path_753" data-name="Path 753" d="M1080.311,655.652a9.4,9.4,0,1,1,4.161-17.561l-1.665,4.581,3.421-3.283a9.345,9.345,0,0,1,3.054,6.49,9.078,9.078,0,0,1-.237,2.588A9.4,9.4,0,0,1,1080.311,655.652Z" transform="translate(-292.84 -274.863)" fill="#ff490c"/>
    <path id="Path_754" data-name="Path 754" d="M1074.438,623.254c-2.168.244-4.283.916-6.459,1.054s-4.581-.389-5.948-2.084a29.147,29.147,0,0,1-1.733-3.054,6.757,6.757,0,0,0-2.367-2.229,9.4,9.4,0,1,0,17.561,6.238C1075.141,623.193,1074.789,623.216,1074.438,623.254Z" transform="translate(-289.64 -270.151)" opacity="0.1"/>
    <path id="Path_755" data-name="Path 755" d="M1080.323,657.317a9.406,9.406,0,0,1-8.941-13.407,6.955,6.955,0,0,1,1.893,1.886,30.163,30.163,0,0,0,1.863,3.108c1.458,1.726,3.963,2.291,6.23,2.184s4.459-.764,6.719-.954c.313,0,.634-.053.947-.061A9.4,9.4,0,0,1,1080.323,657.317Z" transform="translate(-292.852 -276.528)" opacity="0.1"/>
    <path id="Path_756" data-name="Path 756" d="M1050.439,677.247A9.391,9.391,0,0,1,1041.422,664a7.75,7.75,0,0,1,1.985,1.909c.764,1.031,1.184,2.222,2.039,3.169,1.588,1.771,4.253,2.39,6.658,2.336s4.581-.626,6.872-.8A9.4,9.4,0,0,1,1050.439,677.247Z" transform="translate(-285.783 -281.279)" opacity="0.1"/>
    <path id="Path_757" data-name="Path 757" d="M1054.087,702.9a9.407,9.407,0,0,1-17.141-7.635,9.211,9.211,0,0,1,2.062,1.84c.9,1.092,1.527,2.291,2.52,3.344,1.924,1.886,5.024,2.657,7.788,2.733a41.179,41.179,0,0,0,4.772-.282Z" transform="translate(-284.788 -288.672)" opacity="0.1"/>
    <path id="Path_758" data-name="Path 758" d="M498.294,581.27a7.49,7.49,0,0,0-2.985-6.047,8.781,8.781,0,0,0-7.337-8.612,8.765,8.765,0,0,0-5.841-6.528h0a7.458,7.458,0,0,0-1.084-.252h-1.29a8.6,8.6,0,0,0-8.307,7.345c-2.68-.619-5.131.183-5.581,1.878a2.291,2.291,0,0,0,.076,1.359,5.909,5.909,0,0,0,3.94,3.191l.26.076.389.1h.084a6.75,6.75,0,0,0-.641,2.894,6.673,6.673,0,0,0,3.6,5.955l-.176.107a2.382,2.382,0,0,0-.58.809,12.109,12.109,0,0,0-1.122,2.7c-.191.809-.221,1.649-.458,2.451-.443,1.474-1.573,2.718-1.7,4.253-.061.687.053,1.527-.435,1.97a2.374,2.374,0,0,1-.389.275,3.152,3.152,0,0,0-.848.893,2.963,2.963,0,0,1-.6.855c-.443.328-1.168.3-1.382.809s.344,1.115.214,1.672-.6.664-.947.977a3.4,3.4,0,0,0-.817,1.527,5.009,5.009,0,0,1-4.123-1.054,7.7,7.7,0,0,1,.428,1.527,6.689,6.689,0,0,0-2.222-1.115,7.015,7.015,0,0,1-2.367-1.756l1.267-.176-5.6-8.544-1.657-.344,1.481,2.848a.908.908,0,0,0-.5.6,2.587,2.587,0,0,0-.053.97,17.358,17.358,0,0,0,.382,2.291l.428,2c.038.183.084.374.137.557a5.258,5.258,0,0,0-1.657.183,14.417,14.417,0,0,0-3.443-.817,1.91,1.91,0,0,0-.764,0,1.978,1.978,0,0,0-.725.588,23.486,23.486,0,0,0-2.558,3.6c-3.054,5.238-7.032,9.811-10.8,14.545-2.6,1.054-5.215,2.054-7.834,3.054l-5.635,2.153a8.543,8.543,0,0,1-3.5.763c-.534,0-1.2-.115-1.527.344a3.214,3.214,0,0,0-.344.764l-.58.061h0a6.672,6.672,0,0,0-1.351-2.489.855.855,0,0,0-.634.489c-.137.252-.221.527-.382.764-.3.443-.825.657-1.2,1.031s-.611.954-1.023,1.336a4.047,4.047,0,0,1-1.916.763,12.1,12.1,0,0,0-3,1.138,4.835,4.835,0,0,1-1.107.512,4.162,4.162,0,0,1-1.306.046l-2.978-.221a2.355,2.355,0,0,0-.8.038,1.527,1.527,0,0,0-.947,1.527,2.4,2.4,0,0,0,.947,1.642,6.063,6.063,0,0,0,1.7.878,49.758,49.758,0,0,0,7.941,2.352v.6a13.553,13.553,0,0,0,6.108,1.451.948.948,0,0,0,.458-.084,1.008,1.008,0,0,0,.382-.6,24.563,24.563,0,0,0,1.191-5.849h0a3.054,3.054,0,0,0,1.077-.275c1.023-.283,2.046.42,3.108.534,1.306.145,2.512-.618,3.749-1.084l.534-.176a5.862,5.862,0,0,1-1.237,1.183c-.512.367-1.084.641-1.581,1.023a10.884,10.884,0,0,1-1.344,1.038,8.432,8.432,0,0,1-1.031.4,6.8,6.8,0,0,0-1.474.763,2.985,2.985,0,0,0-1,.977,1.466,1.466,0,0,0-.084,1.374,1.451,1.451,0,0,0,.985.687,4.039,4.039,0,0,0,1.214,0c1.619-.122,3.23-.267,4.841-.412a12.913,12.913,0,0,0,2.023-.29c.351-.084.7-.2,1.054-.3a9.4,9.4,0,0,1,1.84-.275,1.528,1.528,0,0,1,.534.053c.374.122.641.5,1.023.58a1.526,1.526,0,0,0,.764-.1,17.027,17.027,0,0,1,3.581-.382,1.478,1.478,0,0,0,1.39-.619c.244-.489-.2-1.275-.4-1.924a5.887,5.887,0,0,1-.168-1.267,7.934,7.934,0,0,0-.886-3.008,7.852,7.852,0,0,1-.664-1.374,34.719,34.719,0,0,0,6.589-3.344,11.782,11.782,0,0,1,3.757-1.809,10.217,10.217,0,0,1,4.719.55,107.365,107.365,0,0,1,10.819,3.772c1.687.695,3.367,1.428,5.108,1.955a7.963,7.963,0,0,0,1.817,1.764,8.4,8.4,0,0,0,3.932,1.077,51.532,51.532,0,0,0,5.536.206,9.338,9.338,0,0,0,4.123-.763,4.24,4.24,0,0,0,.863-.573,3.421,3.421,0,0,0,2.718-1A6.589,6.589,0,0,0,484.55,626c.45-1.741.107-3.818,1.176-5.207.283-.382.657-.687.939-1.069a3.008,3.008,0,0,0,.489-1.764.356.356,0,0,1,.046-.069,6.468,6.468,0,0,0,.458-1.756,10.048,10.048,0,0,1,.5-1.39,42.894,42.894,0,0,0,1.42-4.115,24.042,24.042,0,0,0,.657-2.825c.115-.764.183-1.527.244-2.291a14.227,14.227,0,0,1,.695-3.535,28.77,28.77,0,0,0,1.6-8.46v-.168a5.673,5.673,0,0,0,5.024-5.772,6.023,6.023,0,0,0-.527-2.466,7.634,7.634,0,0,0,1.023-3.848Zm-27.319,33.19c.084.3.183.588.283.878-.45-.435-.886-.886-1.336-1.328.176.061.359.115.527.183a2.841,2.841,0,0,1,.5.267Zm-2.161-1.466c-2.642-2.291-5.7-4.07-8.4-6.291,1.474.725,2.909,1.573,4.329,2.382q2.527,1.443,5.123,2.772a4.192,4.192,0,0,1-1.077,1.138Zm1.122-5.772.13-.13V608l-.71-.244a6.313,6.313,0,0,0,.557-.534ZM446.7,613.406a21.859,21.859,0,0,0,2.81-4.008c1.046,1.825,2.749,3.146,4.192,4.68C451.375,613.78,449.039,613.528,446.7,613.406Z" transform="translate(-133.332 -256.645)" fill="url(#linear-gradient-2)"/>
    <path id="Path_759" data-name="Path 759" d="M415.35,438.25l1.664.336,5.673,8.391-2.5.336Z" transform="translate(-98.222 -103.723)" fill="#2f2e41"/>
    <path id="Path_760" data-name="Path 760" d="M414.49,645.434a32.661,32.661,0,0,0,1.664,4.329,41.214,41.214,0,0,0,5.535-1.581,17.442,17.442,0,0,0-1.153-1.527,5.7,5.7,0,0,0-1.565-1.2,4.306,4.306,0,0,0-1.9,0C416.216,645.434,415.353,645.449,414.49,645.434Z" transform="translate(-137.722 -276.869)" fill="#fbbebe"/>
    <path id="Path_761" data-name="Path 761" d="M414.562,646.926a3.451,3.451,0,0,1-1.894-2.153,6.933,6.933,0,0,0-1.443-2.573.825.825,0,0,0-.641.481c-.137.244-.221.519-.374.764-.305.435-.84.649-1.222,1.015s-.611.939-1.023,1.313a4.061,4.061,0,0,1-1.932.764,12.524,12.524,0,0,0-3.054,1.122,5.267,5.267,0,0,1-1.122.5,4.442,4.442,0,0,1-1.313,0l-3.008-.214a2.353,2.353,0,0,0-.764,0,1.458,1.458,0,0,0-.954,1.527,2.29,2.29,0,0,0,.954,1.619,6.339,6.339,0,0,0,1.71.87,50.322,50.322,0,0,0,8.063,2.291v.6a13.957,13.957,0,0,0,6.146,1.428,1.038,1.038,0,0,0,.458-.076,1.007,1.007,0,0,0,.382-.6,23.822,23.822,0,0,0,1.26-6.536,5.207,5.207,0,0,0-.13-1.687c-.168-.542.4-.313-.122-.527" transform="translate(-133.304 -276.124)" fill="#2f2e41"/>
    <path id="Path_762" data-name="Path 762" d="M477.589,632.8c-8.918.534-17.729-2.077-26.662-2.352a13.019,13.019,0,0,0-3.314.206,16.7,16.7,0,0,0-3.283,1.275c-4.787,2.229-9.742,4.077-14.69,5.917l-5.688,2.115a8.614,8.614,0,0,1-3.52.764c-.542,0-1.206-.115-1.527.336-.924,1.374-.489,3.382.122,4.925.2.5.534,1.038,1.069,1.092a3.107,3.107,0,0,0,1.084-.275c1.031-.275,2.061.42,3.13.534,1.313.137,2.535-.611,3.779-1.069,2.061-.764,4.306-.764,6.475-1.1a29.008,29.008,0,0,0,10.14-4.207,11.836,11.836,0,0,1,3.779-1.787,10.46,10.46,0,0,1,4.757.542,109.168,109.168,0,0,1,10.911,3.711,50.858,50.858,0,0,0,5.7,2.084,20.615,20.615,0,0,0,12.774-.764c1.428-.565,2.978-1.527,3.054-3.1.053-.878-.634-1.649-1.084-2.405-.29-.481-.588-.962-.9-1.428C482.163,635.605,480.3,632.643,477.589,632.8Z" transform="translate(-138.64 -273.339)" fill="#2f2e41"/>
    <path id="Path_763" data-name="Path 763" d="M477.589,632.8c-8.918.534-17.729-2.077-26.662-2.352a13.019,13.019,0,0,0-3.314.206,16.7,16.7,0,0,0-3.283,1.275c-4.787,2.229-9.742,4.077-14.69,5.917l-5.688,2.115a8.614,8.614,0,0,1-3.52.764c-.542,0-1.206-.115-1.527.336-.924,1.374-.489,3.382.122,4.925.2.5.534,1.038,1.069,1.092a3.107,3.107,0,0,0,1.084-.275c1.031-.275,2.061.42,3.13.534,1.313.137,2.535-.611,3.779-1.069,2.061-.764,4.306-.764,6.475-1.1a29.008,29.008,0,0,0,10.14-4.207,11.836,11.836,0,0,1,3.779-1.787,10.46,10.46,0,0,1,4.757.542,109.168,109.168,0,0,1,10.911,3.711,50.858,50.858,0,0,0,5.7,2.084,20.615,20.615,0,0,0,12.774-.764c1.428-.565,2.978-1.527,3.054-3.1.053-.878-.634-1.649-1.084-2.405-.29-.481-.588-.962-.9-1.428C482.163,635.605,480.3,632.643,477.589,632.8Z" transform="translate(-138.64 -273.339)" opacity="0.1"/>
    <path id="Path_764" data-name="Path 764" d="M436.92,644.85q2.092.71,4.222,1.313c.764-1.306,2.291-2.214,2.619-3.711a.352.352,0,0,0,0-.2.367.367,0,0,0-.16-.145,8,8,0,0,0-3.314-.97c-.916-.053-1.336.9-1.748,1.573C438.378,643.01,437.294,645,436.92,644.85Z" transform="translate(-143.026 -275.873)" fill="#fbbebe"/>
    <path id="Path_765" data-name="Path 765" d="M435.209,644.124a3.054,3.054,0,0,1-2.054-1.351c-.191-.344-.4-.809-.8-.764s-.527.458-.611.817a22.9,22.9,0,0,1-1.153,3.963,7.437,7.437,0,0,1-2.466,3.245c-.519.359-1.092.626-1.6,1.008a11.012,11.012,0,0,1-1.351,1.023,8.022,8.022,0,0,1-1.038.382,7.2,7.2,0,0,0-1.481.764,2.94,2.94,0,0,0-1.016.97,1.4,1.4,0,0,0-.076,1.351,1.443,1.443,0,0,0,.985.672,4.157,4.157,0,0,0,1.229,0c1.626-.115,3.253-.26,4.879-.4a14.084,14.084,0,0,0,2.039-.282l1.061-.29a8.446,8.446,0,0,1,1.855-.275,1.442,1.442,0,0,1,.542.053c.374.122.641.5,1.031.573a1.726,1.726,0,0,0,.764-.1,16.859,16.859,0,0,1,3.611-.374,1.524,1.524,0,0,0,1.4-.611c.305-.6-.2-1.26-.4-1.9a6.1,6.1,0,0,1-.168-1.245,7.589,7.589,0,0,0-.893-2.962c-.412-.764-.977-1.6-.687-2.413a2.29,2.29,0,0,0,.275-.832C438.965,643.826,435.957,644.292,435.209,644.124Z" transform="translate(-139.36 -276.078)" fill="#2f2e41"/>
    <path id="Path_766" data-name="Path 766" d="M476.093,612.371a6.964,6.964,0,0,1-3.558-3.527c-.145-.336-.267-.695-.412-1.031A7.835,7.835,0,0,0,470,604.858a1.046,1.046,0,0,0-.764-.328.832.832,0,0,0-.573.618,2.36,2.36,0,0,0-.061.954,17,17,0,0,0,.382,2.229l.435,1.97a4.322,4.322,0,0,0,.267.878,3.054,3.054,0,0,0,.725.863c.4.366.8.718,1.206,1.069a4.143,4.143,0,0,0,.764.527,4.437,4.437,0,0,0,1.351.4,11.5,11.5,0,0,1,5.07,1.955s0-1.321,0-1.466a1.939,1.939,0,0,0-.382-1.061,6.772,6.772,0,0,0-2.329-1.092Z" transform="translate(-150.513 -267.216)" fill="#fbbebe"/>
    <path id="Path_767" data-name="Path 767" d="M476.093,612.371a6.964,6.964,0,0,1-3.558-3.527c-.145-.336-.267-.695-.412-1.031A7.835,7.835,0,0,0,470,604.858a1.046,1.046,0,0,0-.764-.328.832.832,0,0,0-.573.618,2.36,2.36,0,0,0-.061.954,17,17,0,0,0,.382,2.229l.435,1.97a4.322,4.322,0,0,0,.267.878,3.054,3.054,0,0,0,.725.863c.4.366.8.718,1.206,1.069a4.143,4.143,0,0,0,.764.527,4.437,4.437,0,0,0,1.351.4,11.5,11.5,0,0,1,5.07,1.955s0-1.321,0-1.466a1.939,1.939,0,0,0-.382-1.061,6.772,6.772,0,0,0-2.329-1.092Z" transform="translate(-150.513 -267.216)" opacity="0.1"/>
    <ellipse id="Ellipse_66" data-name="Ellipse 66" cx="2.168" cy="2.184" rx="2.168" ry="2.184" transform="translate(341.568 325.716)" fill="#2f2e41"/>
    <path id="Path_768" data-name="Path 768" d="M495.793,590.46a2.344,2.344,0,0,0-1.71.244,2.376,2.376,0,0,0-.588.8,11.645,11.645,0,0,0-1.13,2.657c-.191.764-.221,1.626-.466,2.413-.443,1.451-1.58,2.68-1.71,4.192-.061.68.053,1.474-.443,1.932a2.806,2.806,0,0,1-.389.283,2.932,2.932,0,0,0-.855.878,2.879,2.879,0,0,1-.6.832c-.443.328-1.176.3-1.39.763s.344,1.1.214,1.649-.611.657-.954.962a3.336,3.336,0,0,0-.825,1.527,5.093,5.093,0,0,1-4.154-1.031,13.224,13.224,0,0,1,.649,4.749,1.94,1.94,0,0,1-.382,1.466,26.439,26.439,0,0,1,5.093.886,3.513,3.513,0,0,0,2.222,0,3.71,3.71,0,0,0,1.023-.809,6.522,6.522,0,0,0,2.1-3.237,19.02,19.02,0,0,0,.038-2.191,12.353,12.353,0,0,1,.557-2.665,31.705,31.705,0,0,0,.97-5.482c.1-1.145,1.092-2.062,1.611-3.054a14.954,14.954,0,0,0,2.054-6.108C496.755,591.414,496.511,590.536,495.793,590.46Z" transform="translate(-153.401 -263.873)" fill="#2f2e41"/>
    <path id="Path_769" data-name="Path 769" d="M495.793,590.46a2.344,2.344,0,0,0-1.71.244,2.376,2.376,0,0,0-.588.8,11.645,11.645,0,0,0-1.13,2.657c-.191.764-.221,1.626-.466,2.413-.443,1.451-1.58,2.68-1.71,4.192-.061.68.053,1.474-.443,1.932a2.806,2.806,0,0,1-.389.283,2.932,2.932,0,0,0-.855.878,2.879,2.879,0,0,1-.6.832c-.443.328-1.176.3-1.39.763s.344,1.1.214,1.649-.611.657-.954.962a3.336,3.336,0,0,0-.825,1.527,5.093,5.093,0,0,1-4.154-1.031,13.224,13.224,0,0,1,.649,4.749,1.94,1.94,0,0,1-.382,1.466,26.439,26.439,0,0,1,5.093.886,3.513,3.513,0,0,0,2.222,0,3.71,3.71,0,0,0,1.023-.809,6.522,6.522,0,0,0,2.1-3.237,19.02,19.02,0,0,0,.038-2.191,12.353,12.353,0,0,1,.557-2.665,31.705,31.705,0,0,0,.97-5.482c.1-1.145,1.092-2.062,1.611-3.054a14.954,14.954,0,0,0,2.054-6.108C496.755,591.414,496.511,590.536,495.793,590.46Z" transform="translate(-153.401 -263.873)" opacity="0.1"/>
    <path id="Path_770" data-name="Path 770" d="M483.987,630.311c-1.855-.886-3.214-2.527-4.719-3.94-2.863-2.7-6.368-4.581-9.384-7.124a66.112,66.112,0,0,0-5.978-5.024,14.941,14.941,0,0,0-6.406-2.237,1.7,1.7,0,0,0-.764,0,1.757,1.757,0,0,0-.725.573,23.072,23.072,0,0,0-2.588,3.55c-3.818,6.49-9.246,11.941-13.743,17.973a1.146,1.146,0,0,0-.221.428,1.061,1.061,0,0,0,.168.664l.916,1.787c.512,1.008,1.336,2.176,2.436,1.978a2.665,2.665,0,0,0,1.275-.817l4.108-3.932,4.306-4.115c2.52-2.405,5.085-4.871,6.734-7.956,1.283,2.229,3.566,3.688,5.123,5.726.6.763,1.084,1.626,1.619,2.451.848,1.313,1.817,2.55,2.779,3.818l4.94,6.3a9.452,9.452,0,0,0,2.291,2.291,8.742,8.742,0,0,0,3.963,1.061,52.353,52.353,0,0,0,5.581.2,9.621,9.621,0,0,0,4.161-.764,3.772,3.772,0,0,0,2.252-3.352,4.917,4.917,0,0,0-.71-2.084A17.016,17.016,0,0,0,483.987,630.311Z" transform="translate(-143.626 -268.969)" fill="#2f2e41"/>
    <ellipse id="Ellipse_67" data-name="Ellipse 67" cx="1.672" cy="1.68" rx="1.672" ry="1.68" transform="translate(343.4 327.732)" fill="#e8e8f0"/>
    <path id="Path_771" data-name="Path 771" d="M502.761,590.905a3.214,3.214,0,0,1,.183,2.413,9.784,9.784,0,0,1-1.077,2.222,10.575,10.575,0,0,1-1.4,1.985,14.383,14.383,0,0,0,7.345-2.107,10.667,10.667,0,0,0,4.635-4.039,2.138,2.138,0,0,1-1.71-.321,6.11,6.11,0,0,1-1.306-1.214l-1.29-1.451a5.807,5.807,0,0,1-.764-1.046,2.886,2.886,0,0,1-.344-1.687,9.824,9.824,0,0,1-1.71,1.42c-.924.6-1.939,1.038-2.871,1.634-.321.214-1.054.55-.863.977S502.5,590.447,502.761,590.905Z" transform="translate(-158.055 -262.753)" fill="#fbbebe"/>
    <path id="Path_772" data-name="Path 772" d="M502.761,590.905a3.214,3.214,0,0,1,.183,2.413,9.784,9.784,0,0,1-1.077,2.222,10.575,10.575,0,0,1-1.4,1.985,14.383,14.383,0,0,0,7.345-2.107,10.667,10.667,0,0,0,4.635-4.039,2.138,2.138,0,0,1-1.71-.321,6.11,6.11,0,0,1-1.306-1.214l-1.29-1.451a5.807,5.807,0,0,1-.764-1.046,2.886,2.886,0,0,1-.344-1.687,9.824,9.824,0,0,1-1.71,1.42c-.924.6-1.939,1.038-2.871,1.634-.321.214-1.054.55-.863.977S502.5,590.447,502.761,590.905Z" transform="translate(-158.055 -262.753)" opacity="0.1"/>
    <path id="Path_773" data-name="Path 773" d="M500.362,592.776a2.176,2.176,0,0,0,0,2.52c.076.092.351.664.466.672a.42.42,0,0,0,.29-.153,19.162,19.162,0,0,0,1.634-1.947,3.634,3.634,0,0,1,2.077-1.359,4.49,4.49,0,0,1,2.863.893,2.718,2.718,0,0,1,.985.763,2.666,2.666,0,0,1,.321,1.092,52.607,52.607,0,0,1,.29,6.94,27.352,27.352,0,0,1-.328,5c-.168.847-.412,1.68-.527,2.543a16.226,16.226,0,0,0-.107,2.291v3.192a8.4,8.4,0,0,0,.122,1.748c.153.695.481,1.344.7,2.023a13.234,13.234,0,0,1,.466,2.39l.435,3.3a4.17,4.17,0,0,1-.389,3.054c-.283.374-.657.68-.947,1.054-1.077,1.4-.764,3.413-1.183,5.131a6.4,6.4,0,0,1-2.092,3.207,3.459,3.459,0,0,1-2.756.985c-1.344-.252-2.145-1.649-2.512-2.97a11.874,11.874,0,0,0-1.29-3.871,10.267,10.267,0,0,0-2.55-2.13,4.405,4.405,0,0,1-1.993-2.588c-.084-.481,0-.977-.084-1.466a3.459,3.459,0,0,0-2.13-2.8c-.687-.267-1.527-.366-1.924-.992a4.634,4.634,0,0,0,2.008-2.7,13.844,13.844,0,0,0,.489-3.405l.229-3.818a12.752,12.752,0,0,1,.909-4.955c.336-.687.764-1.336,1.107-2.016a21.878,21.878,0,0,0,1.183-2.955c.55-1.573,1.1-3.146,1.588-4.734a8.917,8.917,0,0,1,.87-2.207C499,593.792,499.591,592.929,500.362,592.776Z" transform="translate(-155.626 -264.372)" fill="#e8e8f0"/>
    <path id="Path_774" data-name="Path 774" d="M492.326,617.483h1.015l.214-1.527a3.183,3.183,0,0,1,.214-.893,5.345,5.345,0,0,1,.588-.855c.993-1.413.924-3.283,1.168-5a25.447,25.447,0,0,1,2.229-6.536l1.97-4.39a6.061,6.061,0,0,0,.428-1.122,6.726,6.726,0,0,0,.122-1.3c0-.68.214-3.153.237-3.818,0-.252-.557-.115-.672-.336-.244-.489-.58.832-1.046,1.122a2.565,2.565,0,0,0-.909,1.328c-.428,1.1-.687,2.291-1.084,3.382a6.909,6.909,0,0,1-1.84,2.993c-.4.351-.87.634-1.252,1.016-1.222,1.206-1.344,3.123-1.382,4.848C492.3,607.451,492.1,617.483,492.326,617.483Z" transform="translate(-156.103 -264.158)" fill="#2f2e41"/>
    <path id="Path_775" data-name="Path 775" d="M508.631,590.438a3.466,3.466,0,0,0-1.81,2.481,12.552,12.552,0,0,1-.916,3.054c-1.237,2.153-4.39,2.779-5.268,5.108a9.39,9.39,0,0,0-.351,2.405c-.153,1.672-.7,3.283-.87,4.948a22.045,22.045,0,0,0,.092,3.886l1.107,13.148a17.562,17.562,0,0,1-.328,5.787,5.574,5.574,0,0,0,3.314-.55c1.031-.473,1.977-1.122,2.978-1.672,1.71-.947,3.6-1.611,5.108-2.871a3.124,3.124,0,0,0,.687-.763,6.6,6.6,0,0,0,.458-1.726,9.314,9.314,0,0,1,.5-1.359,40.02,40.02,0,0,0,1.435-4.062,23.312,23.312,0,0,0,.657-2.779c.122-.763.191-1.527.252-2.291a13.438,13.438,0,0,1,.7-3.474,27.984,27.984,0,0,0,1.611-8.338,4.36,4.36,0,0,0-.084-1.222,6.539,6.539,0,0,0-.672-1.4c-.458-.863-.764-1.809-1.161-2.688a13.217,13.217,0,0,0-4.512-4.741C510.67,590.72,509.632,590.079,508.631,590.438Z" transform="translate(-157.794 -263.859)" fill="#2f2e41"/>
    <path id="Path_776" data-name="Path 776" d="M477.587,617.2a7.963,7.963,0,0,1-2.1-1.6c-.275-.321-.5-.68-.764-1a5.2,5.2,0,0,0-2.642-1.527,12.9,12.9,0,0,0-3.054-.3,5.543,5.543,0,0,0-2.039.244,2.077,2.077,0,0,0-1.351,1.451,2.4,2.4,0,0,0,1.031,2.138,4.857,4.857,0,0,0,2.054.993,16.419,16.419,0,0,0,1.855.221c3.65.382,6.91,2.367,10.109,4.177q4.215,2.4,8.6,4.459a17.868,17.868,0,0,0,.145-2.634c0-.657-.053-1.664-.672-2.054a13.485,13.485,0,0,0-2.733-.817,43.015,43.015,0,0,1-5.5-2.229A27.387,27.387,0,0,1,477.587,617.2Z" transform="translate(-149.816 -269.163)" fill="#fbbebe"/>
    <ellipse id="Ellipse_68" data-name="Ellipse 68" cx="6.505" cy="6.543" rx="6.505" ry="6.543" transform="translate(337.231 314.317)" fill="#fbbebe"/>
    <path id="Path_777" data-name="Path 777" d="M508.962,599.923a10.429,10.429,0,0,0-1.26,2.359c-.764,1.649-2.062,3.054-2.7,4.8s-.641,3.993-1.947,5.421a1.9,1.9,0,0,0-.573.825,3.936,3.936,0,0,1-.061.6c-.191.519-1.038.542-1.2,1.077-.046.153,0,.321-.076.473-.13.344-.588.4-.886.6-.634.428-.5,1.42-.954,2.039a1.718,1.718,0,0,1-1.626.573,5.728,5.728,0,0,1-1.687-.634,1.628,1.628,0,0,0-.611-.191,1.26,1.26,0,0,0-.7.244,4.329,4.329,0,0,0-1.756,3.7,12.094,12.094,0,0,0,1.008,4.146,1.664,1.664,0,0,0,.328.618,1.458,1.458,0,0,0,1.619.122,7.636,7.636,0,0,1,1.581-.71c1.008-.183,1.993.512,3.016.451a4.193,4.193,0,0,0,2.031-.893,11.224,11.224,0,0,0,2.733-2.291c.443-.588.764-1.252,1.161-1.878a24.1,24.1,0,0,1,1.642-2.191l3.756-4.581a10.552,10.552,0,0,0,1.008-1.39,9.8,9.8,0,0,0,.764-2.1,16.086,16.086,0,0,0,.763-3.734,14.347,14.347,0,0,0-.275-3.13,11.064,11.064,0,0,0-.763-2.985C512.482,599.541,510.5,598.137,508.962,599.923Z" transform="translate(-156.27 -265.93)" fill="#2f2e41"/>
    <path id="Path_778" data-name="Path 778" d="M520.906,582.425a7.33,7.33,0,0,0-3.008-5.955,8.712,8.712,0,0,0-7.4-8.483,8.452,8.452,0,0,0-16.652.451c-2.7-.611-5.177.183-5.627,1.848s1.458,3.818,4.306,4.581a8.022,8.022,0,0,0,2.764.275,8.46,8.46,0,0,0,5.818,3.627,8.681,8.681,0,0,0,6.352,6.551,7.293,7.293,0,0,0,1.962,2.711v.634a5.5,5.5,0,1,0,11.01,0,5.879,5.879,0,0,0-.527-2.436A7.36,7.36,0,0,0,520.906,582.425Z" transform="translate(-155.142 -256.968)" fill="#f86d70"/>
    <path id="Path_779" data-name="Path 779" d="M490.05,570.635c.45-1.664,2.924-2.459,5.627-1.848a8.6,8.6,0,0,1,8.4-7.238h.557a8.276,8.276,0,0,0-2.4-.359,8.6,8.6,0,0,0-8.4,7.238c-2.7-.611-5.177.183-5.627,1.848s1.458,3.818,4.306,4.581a8.4,8.4,0,0,0,1.634.283C491.424,574.323,489.6,572.337,490.05,570.635Z" transform="translate(-155.14 -256.967)" opacity="0.1"/>
    <path id="Path_780" data-name="Path 780" d="M513.487,593.39a5.728,5.728,0,0,1,0-.626,7.13,7.13,0,0,1-1.962-2.711,8.658,8.658,0,0,1-6.352-6.559,8.437,8.437,0,0,1-5.826-3.619,7.328,7.328,0,0,1-1.626-.046,8.483,8.483,0,0,0,5.612,3.337,8.681,8.681,0,0,0,6.352,6.551,7.292,7.292,0,0,0,1.962,2.711v.634a5.6,5.6,0,0,0,5.474,5.7A5.7,5.7,0,0,1,513.487,593.39Z" transform="translate(-157.404 -261.375)" opacity="0.1"/>
    <ellipse id="Ellipse_69" data-name="Ellipse 69" cx="1" cy="1.336" rx="1" ry="1.336" transform="translate(344.308 321.739) rotate(-37.22)" fill="#fbbebe"/>
  </g>
</svg>
